<svg width="1600" height="900" viewBox="0 0 1600 900" fill="none" xmlns="http://www.w3.org/2000/svg">
  <rect width="1600" height="900" fill="#F8FBFF"/>
  <g stroke="#3B82F6" stroke-width="2" stroke-linecap="round" stroke-linejoin="round" opacity="0.7">
    <path d="M80 160H420V260H720V420H980V520H1320"/>
    <path d="M140 620H360V500H640V660H880V760H1240"/>
    <path d="M220 300H300V140H520V80H760"/>
    <path d="M980 180H1140V320H1460"/>
    <path d="M1040 700H1220V560H1500"/>
    <path d="M520 820V700H760V560H940V420H1160"/>
    <path d="M420 420H520V520H700V620H920"/>
    <path d="M260 760V640H460V540H640"/>
  </g>
  <g fill="#1D4ED8" opacity="0.75">
    <circle cx="420" cy="160" r="8"/>
    <circle cx="720" cy="260" r="8"/>
    <circle cx="980" cy="420" r="8"/>
    <circle cx="1320" cy="520" r="8"/>
    <circle cx="640" cy="660" r="8"/>
    <circle cx="880" cy="760" r="8"/>
    <circle cx="760" cy="80" r="8"/>
    <circle cx="1460" cy="320" r="8"/>
    <circle cx="1500" cy="560" r="8"/>
    <circle cx="1160" cy="420" r="8"/>
    <circle cx="920" cy="620" r="8"/>
    <circle cx="640" cy="540" r="8"/>
  </g>
</svg>
